<svg xmlns="http://www.w3.org/2000/svg" viewBox="0 0 64 64">
  <rect width="64" height="64" rx="14" fill="#16a34a"/>
  <path fill="white" d="M46.1 17.9C42.3 14.1 37.3 12 32 12c-11.1 0-20 8.9-20 20 0 3.5.9 7 2.7 10L12 52l10.3-2.7c2.9 1.6 6.1 2.4 9.7 2.4 11.1 0 20-8.9 20-20 0-5.3-2.1-10.4-5.9-14.8zM32 48.5c-3.1 0-6.1-.8-8.7-2.3l-.6-.4-6.3 1.6 1.7-6.1-.4-.6C15.8 38 15 35 15 32c0-9.4 7.6-17 17-17 4.5 0 8.8 1.8 12 4.9 3.2 3.2 5 7.4 5 12-.1 9.4-7.7 16.6-17 16.6zm9.3-12.7c-.5-.3-3-1.5-3.5-1.6-.5-.2-.8-.3-1.2.3-.3.5-1.3 1.6-1.6 2-.3.3-.6.4-1.1.1-.5-.3-2.2-.8-4.2-2.6-1.5-1.4-2.6-3.1-2.9-3.6-.3-.5 0-.8.2-1 .2-.2.5-.6.7-.9.2-.3.3-.5.5-.9.2-.3.1-.6 0-.9-.1-.3-1.2-2.8-1.6-3.8-.4-1-.8-.9-1.2-.9H23c-.3 0-.9.1-1.4.7-.5.5-1.8 1.8-1.8 4.3s1.9 5 2.1 5.4c.3.3 3.7 5.6 8.9 7.9 1.2.5 2.2.8 3 1.1 1.2.4 2.4.3 3.3.2 1-.1 3.1-1.3 3.5-2.5.4-1.2.4-2.3.3-2.5-.3-.2-.6-.3-1.6-.5z"/>
</svg>
